<svg width="154" height="142" viewBox="0 0 154 142" fill="none" xmlns="http://www.w3.org/2000/svg">
<path fill-rule="evenodd" clip-rule="evenodd" d="M19.1088 47.4925L0 30.5945L55.8699 0L77.308 15.1359L97.9055 0L154 29.9426L134.66 47.2408L134.75 47.2925L154 73.8529L134.75 84.3996V111.005L77 142L19.25 111.005V84.4448L25.6667 87.9561V107.133L73.7981 132.964V82.0437L57.75 105.5L0 73.9175L19.1088 47.4925V47.4925ZM80.2148 82.1276V132.957L128.333 107.133V87.9174L96.25 105.5L80.2148 82.1276V82.1276ZM9.49025 71.7616L55.7416 97.0505L67.5932 79.7265L21.1942 55.5736L9.49025 71.7616V71.7616ZM86.4197 79.8105L98.252 97.0505L144.503 71.7035L132.812 55.5801L86.4197 79.8105ZM25.6089 50.6036L77.0064 22.01L128.333 50.6488L77.1861 77.4545L25.6089 50.6036ZM11.1329 31.8467L24.6464 43.7941L70.5898 18.2793L55.44 7.58409L11.1329 31.8467V31.8467ZM83.468 18.602L128.872 43.7812L142.835 31.2916L98.4445 7.597L83.468 18.602Z" fill="black"/>
</svg>
