<svg width="124" height="124" viewBox="0 0 124 124" fill="none" xmlns="http://www.w3.org/2000/svg">
<path d="M83.4055 10.3333L113.667 40.5997V83.4003L83.4055 113.667H40.5945L10.3333 83.4003V40.5997L40.5945 10.3333H83.4055V10.3333ZM87.6835 0H36.3165L0 36.3165V87.6783L36.3165 124H87.6783L124 87.6835V36.3165L87.6835 0ZM54.25 31H69.75L64.5833 72.3333H59.4167L54.25 31ZM62 94.2917C58.435 94.2917 55.5417 91.3983 55.5417 87.8333C55.5417 84.2683 58.435 81.375 62 81.375C65.565 81.375 68.4583 84.2683 68.4583 87.8333C68.4583 91.3983 65.565 94.2917 62 94.2917Z" fill="black"/>
</svg>
