<svg width="234" height="170" viewBox="0 0 234 170" fill="none" xmlns="http://www.w3.org/2000/svg">
<path d="M164.492 12.3911C161.743 5.17555 154.645 0 146.25 0C133.595 0 123.698 11.7489 127.686 24.3856C138.518 20.655 150.56 13.9683 164.492 12.3911V12.3911ZM126.75 94.4444C126.75 89.2311 122.392 85 117 85C111.608 85 107.25 89.2311 107.25 94.4444C107.25 99.6578 111.608 103.889 117 103.889C122.392 103.889 126.75 99.6578 126.75 94.4444ZM178.601 140.467C192.865 137.53 202.693 126.395 199.524 109.99C213.164 124.317 198.013 147.286 178.601 140.467ZM42.0907 140.467C56.355 137.53 66.183 126.395 63.0142 109.99C76.6545 124.317 61.4932 147.286 42.0907 140.467ZM87.75 0C79.3552 0 72.2573 5.17555 69.5078 12.3911C83.4405 13.9778 95.4818 20.655 106.314 24.3856C110.302 11.7489 100.405 0 87.75 0V0ZM98.8065 51.8878C110.584 55.6278 123.347 55.6467 135.184 51.8878C160.68 43.8222 169.455 33.1311 178.591 48.7617C182.413 55.2878 191.578 70.8333 194.825 76.4717C166.998 71.0411 140.497 89.845 136.909 116.648C124.888 110.793 109.668 110.538 97.0905 116.648C93.4928 89.8356 67.002 71.0411 39.1658 76.4717C43.2023 69.5017 50.7 56.8178 55.3995 48.7711C64.5255 33.1406 73.281 43.8033 98.8065 51.8878ZM168.724 21.9017C155.142 21.9017 140.839 30.2222 129.119 33.9339C121.202 36.4461 112.69 36.4178 104.881 33.9339C93.171 30.2222 78.858 21.9017 65.2763 21.9017C55.5458 21.9017 46.1857 26.1706 38.4247 39.4589C14.9663 79.645 0 102.614 0 122.778C0 148.854 21.8205 170 48.75 170C88.1303 170 89.271 131.061 117 131.061C144.729 131.061 145.87 170 185.25 170C212.18 170 234 148.854 234 122.778C234 102.614 219.034 79.645 195.575 39.4683C187.805 26.1706 178.454 21.9017 168.724 21.9017V21.9017ZM185.25 151.111C169.123 151.111 156 138.399 156 122.778C156 107.157 169.123 94.4444 185.25 94.4444C201.377 94.4444 214.5 107.157 214.5 122.778C214.5 138.399 201.377 151.111 185.25 151.111ZM48.75 151.111C32.6235 151.111 19.5 138.399 19.5 122.778C19.5 107.157 32.6235 94.4444 48.75 94.4444C64.8765 94.4444 78 107.157 78 122.778C78 138.399 64.8765 151.111 48.75 151.111Z" fill="black"/>
</svg>
